<?xml version="1.0" encoding="UTF-8" standalone="no"?>
<!-- Created with Inkscape (http://www.inkscape.org/) -->

<svg
   xmlns:dc="http://purl.org/dc/elements/1.1/"
   xmlns:cc="http://creativecommons.org/ns#"
   xmlns:rdf="http://www.w3.org/1999/02/22-rdf-syntax-ns#"
   xmlns:svg="http://www.w3.org/2000/svg"
   xmlns="http://www.w3.org/2000/svg"
   xmlns:sodipodi="http://sodipodi.sourceforge.net/DTD/sodipodi-0.dtd"
   xmlns:inkscape="http://www.inkscape.org/namespaces/inkscape"
   width="30.599459mm"
   height="26.312506mm"
   viewBox="0 0 30.599459 26.312506"
   version="1.1"
   id="svg8"
   inkscape:version="0.92.4 (5da689c313, 2019-01-14)"
   sodipodi:docname="logo-rhit.svg">
  <defs
     id="defs2" />
  <sodipodi:namedview
     id="base"
     pagecolor="#ffffff"
     bordercolor="#666666"
     borderopacity="1.0"
     inkscape:pageopacity="0.0"
     inkscape:pageshadow="2"
     inkscape:zoom="2.4865144"
     inkscape:cx="115.46784"
     inkscape:cy="56.446683"
     inkscape:document-units="mm"
     inkscape:current-layer="layer1"
     showgrid="false"
     inkscape:window-width="1920"
     inkscape:window-height="1016"
     inkscape:window-x="0"
     inkscape:window-y="27"
     inkscape:window-maximized="1"
     fit-margin-top="1"
     fit-margin-left="1"
     fit-margin-right="1"
     fit-margin-bottom="1" />
  <metadata
     id="metadata5">
    <rdf:RDF>
      <cc:Work
         rdf:about="">
        <dc:format>image/svg+xml</dc:format>
        <dc:type
           rdf:resource="http://purl.org/dc/dcmitype/StillImage" />
        <dc:title></dc:title>
      </cc:Work>
    </rdf:RDF>
  </metadata>
  <g
     inkscape:label="Layer 1"
     inkscape:groupmode="layer"
     id="layer1"
     transform="translate(-69.973775,-129.58961)">
    <path
       inkscape:connector-curvature="0"
       id="path841"
       style="font-style:normal;font-variant:normal;font-weight:normal;font-stretch:normal;font-size:17.63888931px;line-height:1.25;font-family:Navilu;-inkscape-font-specification:'Navilu, Normal';font-variant-ligatures:normal;font-variant-caps:normal;font-variant-numeric:normal;font-feature-settings:normal;text-align:start;letter-spacing:0px;word-spacing:0px;writing-mode:lr-tb;text-anchor:start;fill:#ff5f87;fill-opacity:1;stroke:none;stroke-width:0.26458332"
       d="m 77.071594,148.8732 q 0.559828,0.18948 1.085206,0.8096 0.533989,0.62011 1.067979,1.70532 l 1.765612,3.51399 h -1.868965 l -1.645033,-3.29867 q -0.637343,-1.29191 -1.240234,-1.71394 -0.594279,-0.42202 -1.627808,-0.42202 h -1.894802 v 5.43463 H 70.973775 V 142.0433 h 3.927409 q 2.204861,0 3.290066,0.92156 1.085206,0.92156 1.085206,2.78191 0,1.2144 -0.568441,2.01538 -0.559828,0.80099 -1.636421,1.11105 z m -4.358045,-5.40019 v 4.56475 h 2.187635 q 1.25746,0 1.894803,-0.57705 0.645955,-0.58567 0.645955,-1.71394 0,-1.12827 -0.645955,-1.69671 -0.637343,-0.57705 -1.894803,-0.57705 z" />
    <path
       inkscape:connector-curvature="0"
       id="path843"
       style="font-style:normal;font-weight:normal;font-size:10.58333302px;line-height:1.25;font-family:sans-serif;letter-spacing:0px;word-spacing:0px;fill:#ffffff;fill-opacity:1;stroke:none;stroke-width:0.26458332"
       d="m 89.25173,150.24435 v 4.65776 h -1.267795 v -4.61642 q 0,-1.09554 -0.427192,-1.63987 -0.427192,-0.54432 -1.281576,-0.54432 -1.026638,0 -1.619194,0.65456 -0.592557,0.65457 -0.592557,1.78456 v 4.36149 h -1.274685 v -10.72113 h 1.274685 v 4.20301 q 0.454753,-0.6959 1.06798,-1.04041 0.620117,-0.34451 1.426269,-0.34451 1.329807,0 2.011936,0.82682 0.682129,0.81993 0.682129,2.41846 z" />
    <path
       inkscape:connector-curvature="0"
       id="path845"
       style="font-style:normal;font-weight:normal;font-size:10.58333302px;line-height:1.25;font-family:sans-serif;letter-spacing:0px;word-spacing:0px;fill:#ffffff;fill-opacity:1;stroke:none;stroke-width:0.26458332"
       d="m 91.79421,147.1851 h 1.267795 v 7.71701 H 91.79421 Z"
       sodipodi:nodetypes="ccccc" />
    <path
       inkscape:connector-curvature="0"
       id="path847"
       style="font-style:normal;font-weight:normal;font-size:10.58333302px;line-height:1.25;font-family:sans-serif;letter-spacing:0px;word-spacing:0px;fill:#ffffff;fill-opacity:1;stroke:none;stroke-width:0.26458332"
       d="m 96.961852,144.99402 v 2.19108 h 2.611383 v 0.9853 h -2.611383 v 4.18923 q 0,0.94396 0.254937,1.21268 0.261828,0.26872 1.0542,0.26872 h 1.302246 v 1.06108 h -1.302246 q -1.467611,0 -2.025717,-0.54432 -0.558105,-0.55122 -0.558105,-1.99816 v -4.18923 h -0.930176 v -0.9853 h 0.930176 v -2.19108 z" />
    <path
       style="fill:#ffcc00;fill-opacity:1;stroke:none;stroke-width:0.05190269px;stroke-linecap:butt;stroke-linejoin:miter;stroke-opacity:1"
       d="m 92.143695,130.58961 c 2.216841,5.48228 3.970765,12.06753 0.400709,15.3538 v 0 c 0,0 -3.093579,-2.30948 -2.583389,-6.44117 0.328141,-2.94798 1.203994,-2.24069 2.18268,-8.91263 z"
       id="path827"
       inkscape:connector-curvature="0"
       sodipodi:nodetypes="ccccc" />
  </g>
</svg>
